HIERARCHY
ROOT root
{
	OFFSET	0	13.1	24.9
	CHANNELS 6  Xposition Yposition Zposition Xrotation Yrotation Zrotation
	JOINT spine_1
	{
		OFFSET	0	9.99999	0
		CHANNELS 3  Xrotation Yrotation Zrotation
		JOINT spine_2
		{
			OFFSET	0	112	-10
			CHANNELS 3  Xrotation Yrotation Zrotation
			JOINT spine_3
			{
				OFFSET	0	206.5	19.3
				CHANNELS 3  Xrotation Yrotation Zrotation
				JOINT spine_4
				{
					OFFSET	0	110.4	14.6
					CHANNELS 3  Xrotation Yrotation Zrotation
					JOINT neck_1
					{
						OFFSET	0	71.8	-50.3
						CHANNELS 3  Xrotation Yrotation Zrotation
						JOINT neck_2
						{
							OFFSET	0	86.2	-25.8
							CHANNELS 3  Xrotation Yrotation Zrotation
							JOINT head_ee
							{
								OFFSET	0	179.8	-8.7
								CHANNELS 3  Xrotation Yrotation Zrotation
								End Site
								{
									OFFSET	1	0	0
								}
							}
						}
					}
					JOINT left_clavicle
					{
						OFFSET	-43.2	22.4	-70.8
						CHANNELS 3  Xrotation Yrotation Zrotation
						JOINT left_shoulder
						{
							OFFSET	-93.9	-5.79999	48.7
							CHANNELS 3  Xrotation Yrotation Zrotation
							JOINT left_elbow
							{
								OFFSET	-291.4	-30.8	15.2
								CHANNELS 3  Xrotation Yrotation Zrotation
								JOINT left_lowarm_twist
								{
									OFFSET	-110.7	-3.89999	13.6
									CHANNELS 3  Xrotation Yrotation Zrotation
									JOINT left_hand
									{
										OFFSET	-110.7	-3.89999	13.6
										CHANNELS 3  Xrotation Yrotation Zrotation
										JOINT left_ee
										{
											OFFSET	-80.8	-5.10001	12.1
											CHANNELS 3  Xrotation Yrotation Zrotation
											End Site
											{
												OFFSET	1	0	0
											}
										}
									}
								}
							}
						}
					}
					JOINT right_clavicle
					{
						OFFSET	43.2	22.4	-70.8
						CHANNELS 3  Xrotation Yrotation Zrotation
						JOINT right_shoulder
						{
							OFFSET	93.9	-5.79999	48.7
							CHANNELS 3  Xrotation Yrotation Zrotation
							JOINT right_elbow
							{
								OFFSET	291.4	-30.8	15.2
								CHANNELS 3  Xrotation Yrotation Zrotation
								JOINT right_lowarm_twist
								{
									OFFSET	110.7	-3.89999	13.6
									CHANNELS 3  Xrotation Yrotation Zrotation
									JOINT right_hand
									{
										OFFSET	110.7	-3.89999	13.6
										CHANNELS 3  Xrotation Yrotation Zrotation
										JOINT right_ee
										{
											OFFSET	80.8	-5.10001	12.1
											CHANNELS 3  Xrotation Yrotation Zrotation
											End Site
											{
												OFFSET	1	0	0
											}
										}
									}
								}
							}
						}
					}
				}
			}
		}
	}
	JOINT left_hip
	{
		OFFSET	-82.8	-127.5	0.300001
		CHANNELS 3  Xrotation Yrotation Zrotation
		JOINT left_knee
		{
			OFFSET	-28.2	-396.7	2.2
			CHANNELS 3  Xrotation Yrotation Zrotation
			JOINT left_ankle
			{
				OFFSET	-11.7	-411.3	35.4
				CHANNELS 3  Xrotation Yrotation Zrotation
				JOINT left_toes
				{
					OFFSET	0	-60	-88.6
					CHANNELS 3  Xrotation Yrotation Zrotation
					JOINT left_foot_ee
					{
						OFFSET	-22.5	-16.5	-42.2
						CHANNELS 3  Xrotation Yrotation Zrotation
						End Site
						{
							OFFSET	1	0	0
						}
					}
				}
			}
		}
	}
	JOINT right_hip
	{
		OFFSET	82.8	-127.5	0.300001
		CHANNELS 3  Xrotation Yrotation Zrotation
		JOINT right_knee
		{
			OFFSET	28.2	-396.7	2.2
			CHANNELS 3  Xrotation Yrotation Zrotation
			JOINT right_ankle
			{
				OFFSET	11.7	-411.3	35.4
				CHANNELS 3  Xrotation Yrotation Zrotation
				JOINT right_toes
				{
					OFFSET	0	-60	-88.6
					CHANNELS 3  Xrotation Yrotation Zrotation
					JOINT right_foot_ee
					{
						OFFSET	22.5	-16.5	-42.2
						CHANNELS 3  Xrotation Yrotation Zrotation
						End Site
						{
							OFFSET	1	0	0
						}
					}
				}
			}
		}
	}
}
MOTION
Frames: 12
Frame Time: 0.02
3513.36632252 702.175 -1528.52836212 -2.96265878195 53.2667595259 -4.31902330957 0.825292 0.780035 4.18391 0.834882 0.512465 4.22497 0.875784 -0.322254 4.24368 0.850833 0.351381 4.24137 -11.3296 19.678 -1.88502 -12.1683 38.4831 3.9907 -0.0 0.0 -0.0 -7.02428 24.5791 -6.64409 -11.2937 -14.4039 65.0729 2.53709 -51.4834 1.22345 -11.4409 -0.540599 1.35679 -1.10263 21.0624 1.96288 -0.0 0.0 -0.0 11.9511 24.5957 -23.4213 -2.36476 28.6435 -76.2784 0.470974 13.1328 -0.0542139 24.1014 -0.210706 3.04891 0.408936 9.30717 1.19219 0.0 0.0 0.0 11.9255 19.0107 -5.70074 -50.4128 -1.25831 7.38879 39.2185 2.71196 -4.79351 -0.65335 0.0 0.0 -0.0 0.0 -0.0 5.49046 26.0705 0.718751 -29.2925 -0.0705138 -4.44609 40.2864 -1.80422 4.8897 16.3867 -0.0 -0.0 0.0 0.0 0.0 
3515.60564682 702.175 -1530.96777342 -2.81175626836 50.9380075171 -4.51021512089 0.825292 0.780035 4.18391 0.834882 0.512465 4.22497 0.875784 -0.322254 4.24368 0.850833 0.351381 4.24137 -11.3296 19.678 -1.88502 -12.1683 38.4831 3.9907 -0.0 0.0 -0.0 -7.02428 24.5791 -6.64409 -11.2937 -14.4039 65.0729 2.53709 -51.4834 1.22345 -11.4409 -0.540599 1.35679 -1.10263 21.0624 1.96288 -0.0 0.0 -0.0 11.9511 24.5957 -23.4213 -2.36476 28.6435 -76.2784 0.470974 13.1328 -0.0542139 24.1014 -0.210706 3.04891 0.408936 9.30717 1.19219 0.0 0.0 0.0 11.9255 19.0107 -5.70074 -50.4128 -1.25831 7.38879 39.2185 2.71196 -4.79351 -0.65335 0.0 0.0 -0.0 0.0 -0.0 5.49046 26.0705 0.718751 -29.2925 -0.0705138 -4.44609 40.2864 -1.80422 4.8897 16.3867 -0.0 -0.0 0.0 0.0 0.0 
3487.09968472 707.685 -1532.87636567 -10.4825475551 63.4735949995 3.3555469305 1.67431 1.08816 4.11948 1.68337 0.824057 4.18022 1.74463 0.0576747 4.26014 1.72006 0.729161 4.19779 -13.7204 19.3466 -2.51016 -15.0235 38.405 4.28295 -0.0 0.0 -0.0 -5.68869 21.6954 -5.61836 -20.3847 -15.4953 65.0583 1.55813 -37.6602 0.531373 -6.47864 -0.272812 0.781535 -0.519055 25.9855 7.34993 -0.0 0.0 -0.0 13.5616 26.074 -26.9706 4.27 28.0793 -74.4074 0.561034 15.5318 -0.0765127 24.5386 -0.202628 3.10418 -0.339644 4.88846 4.36381 0.0 0.0 0.0 19.5283 26.0054 -10.0253 -49.0675 -1.14193 7.21742 33.4596 0.032364 -4.26754 -0.706291 0.0 0.0 -0.0 0.0 -0.0 5.7194 23.734 -0.631439 -25.3612 -0.193615 -3.85542 42.2703 -10.1947 5.07189 7.10112 -0.0 -0.0 0.0 0.0 0.0 
3482.9343206 708.74 -1534.91209754 -13.2202017769 66.0172684807 6.48483355809 1.7847 1.10149 4.13857 1.79384 0.836152 4.20012 1.85599 0.074357 4.28175 1.83119 0.749039 4.2165 -13.3368 19.5251 -2.62552 -14.5925 38.7949 4.0885 -0.0 0.0 -0.0 -5.71727 20.5438 -5.98081 -20.5814 -15.202 65.5057 1.38048 -34.3644 0.426879 -5.98258 -0.24881 0.722818 -0.536092 26.4486 7.43478 -0.0 0.0 -0.0 13.684 26.1469 -27.2467 5.41127 27.9306 -75.1507 0.587904 16.2373 -0.0838671 24.9088 -0.195458 3.15092 -0.415531 5.92808 5.32372 0.0 0.0 0.0 21.1059 27.7322 -11.22 -40.5228 -0.500359 6.0713 28.4064 -3.4106 -3.76911 -0.265479 0.0 0.0 -0.0 0.0 -0.0 5.04418 24.1246 -0.702241 -22.9932 -0.248096 -3.49614 42.3492 -7.42082 5.0608 4.67625 -0.0 -0.0 0.0 0.0 0.0 
3473.36411178 714.667 -1531.63517688 -13.3790165112 69.0170038867 6.15741911557 1.83034 1.12728 4.3526 1.84047 0.848309 4.41534 1.9066 0.0519564 4.49564 1.87922 0.7606 4.43126 -15.3718 19.3359 -1.91886 -16.9872 38.1105 5.51673 -0.0 0.0 -0.0 -5.43068 19.1921 -5.91596 -21.0805 -14.9189 66.8299 1.14063 -29.467 0.299961 -3.74677 -0.146989 0.455722 0.0201733 27.9751 11.0988 -0.0 0.0 -0.0 14.5936 25.9994 -29.3996 6.36982 27.4405 -74.3139 0.562597 15.573 -0.0769317 24.3788 -0.20563 3.08398 -0.444646 7.49239 6.19331 0.0 0.0 0.0 25.4281 31.7878 -14.4437 -34.8355 -0.171307 5.26194 20.9705 -5.96871 -2.92501 0.533435 -0.0 -0.0 -0.0 0.0 -0.0 3.70647 25.7363 -0.165107 -23.9058 -0.228859 -3.63487 42.3542 -12.528 5.10297 2.16256 -0.0 -0.0 0.0 0.0 0.0 
3465.99786819 721.294 -1530.32412768 -15.9725430333 71.1811919768 8.58826708633 1.96857 1.17956 4.43273 1.97905 0.895399 4.49862 2.04973 0.0951525 4.5857 2.02133 0.817438 4.51341 -18.0181 19.3957 -1.39799 -20.1585 38.0073 7.13373 -0.0 0.0 -0.0 -5.45005 19.3368 -5.90686 -22.0935 -14.4486 67.34 1.007 -26.5113 0.237228 -3.84592 -0.151282 0.467648 0.0237417 28.2865 11.2272 -0.0 0.0 -0.0 14.6933 26.7827 -29.5323 7.2104 27.0845 -74.0611 0.632755 17.4036 -0.0968466 23.9231 -0.21388 3.02636 -0.279226 8.70931 5.59226 0.0 0.0 0.0 28.3974 33.1669 -16.1118 -31.5602 -0.0188468 4.78259 18.7631 -6.78585 -2.65497 -1.8356 0.0 0.0 -0.0 0.0 -0.0 2.75484 24.6434 0.353724 -21.2611 -0.278519 -3.2321 42.3448 -11.158 5.08698 1.72498 -0.0 -0.0 0.0 0.0 0.0 
3455.9814978 723.628 -1525.15258716 -17.617098471 73.4356632257 10.2072334547 2.12309 1.18599 4.40204 2.13341 0.903765 4.4684 2.20379 0.120984 4.5571 2.1758 0.838444 4.48109 -18.4156 19.049 -1.93485 -20.5784 37.6277 6.62705 -0.0 0.0 -0.0 -5.35482 19.8137 -5.63535 -22.8916 -13.9483 67.8552 0.909409 -24.251 0.195388 -3.66733 -0.143563 0.44616 0.0364859 28.5192 11.3785 -0.0 0.0 -0.0 14.6114 26.9411 -29.3178 7.63592 26.83 -73.8697 0.749031 20.3572 -0.134485 23.7923 -0.216163 3.00981 -0.282222 10.1101 6.21185 0.0 0.0 0.0 29.2422 34.3809 -16.4106 -30.2597 0.0340322 4.59003 14.6581 -7.87298 -2.12414 -2.82911 0.0 0.0 -0.0 0.0 -0.0 1.28706 24.9435 0.815636 -20.7883 -0.285435 -3.15989 41.6946 -13.2341 5.05615 2.23274 -0.0 -0.0 0.0 0.0 0.0 
3440.71539736 723.809 -1516.65609014 -16.3892707462 74.1034454982 9.06961330551 2.12021 1.19558 4.42011 2.13062 0.912186 4.48704 2.20197 0.125949 4.57691 2.17374 0.846466 4.49988 -18.1784 18.2919 -3.63316 -20.1921 37.0721 4.5847 -0.0 0.0 -0.0 -5.31557 20.8437 -5.30307 -24.0837 -13.1525 68.7027 0.786451 -21.2851 0.147787 -3.34196 -0.129673 0.406952 0.185578 29.1287 12.4086 -0.0 0.0 -0.0 14.3678 27.113 -28.7217 8.32485 26.5789 -73.5827 0.915473 24.3939 -0.197885 23.2524 -0.225189 2.94143 -0.174937 11.4367 6.05062 0.0 0.0 0.0 30.4607 35.386 -16.5717 -26.5499 0.160676 4.03487 11.3825 -8.57965 -1.67798 -3.79179 0.0 0.0 -0.0 0.0 -0.0 -1.31131 25.5558 1.78511 -20.1059 -0.294365 -3.05556 41.2039 -13.0555 5.01173 3.66908 -0.0 -0.0 0.0 0.0 0.0 
3431.07513826 723.596 -1513.99618281 -18.9163176924 75.5793372292 11.9885261311 2.21522 1.2111 4.40875 2.22555 0.928396 4.4767 2.29772 0.151404 4.56925 2.26965 0.870399 4.48831 -17.7969 17.6239 -4.63257 -19.6185 36.3377 3.16847 -0.0 0.0 -0.0 -5.22345 21.0783 -5.10529 -25.14 -12.8327 68.7579 0.701248 -19.1561 0.118333 -3.56449 -0.139149 0.433776 0.087619 29.0628 11.8471 -0.0 0.0 -0.0 14.1218 27.4342 -28.1022 8.88587 26.1206 -73.2494 1.12014 29.0243 -0.28995 22.6686 -0.234221 2.86741 0.00670356 14.1282 5.96919 0.0 0.0 0.0 32.7448 35.3394 -17.1196 -21.6679 0.272091 3.2942 5.92908 -12.0625 -0.909817 -5.4561 0.0 0.0 -0.0 0.0 -0.0 -2.5175 24.407 2.41091 -19.1145 -0.305124 -2.90383 40.3156 -13.8663 4.9446 5.73153 -0.0 -0.0 0.0 0.0 0.0 
3431.02939752 723.596 -1513.82881865 -19.0010187258 75.6425946649 12.0759702065 2.21522 1.2111 4.40875 2.22555 0.928396 4.4767 2.29772 0.151404 4.56925 2.26965 0.870399 4.48831 -17.7969 17.6239 -4.63257 -19.6185 36.3377 3.16847 -0.0 0.0 -0.0 -5.22345 21.0783 -5.10529 -25.14 -12.8327 68.7579 0.701248 -19.1561 0.118333 -3.56449 -0.139149 0.433776 0.087619 29.0628 11.8471 -0.0 0.0 -0.0 14.1218 27.4342 -28.1022 8.88587 26.1206 -73.2494 1.12014 29.0243 -0.28995 22.6686 -0.234221 2.86741 0.00670356 14.1282 5.96919 0.0 0.0 0.0 32.7448 35.3394 -17.1196 -21.6679 0.272091 3.2942 5.92908 -12.0625 -0.909817 -5.4561 0.0 0.0 -0.0 0.0 -0.0 -2.5175 24.407 2.41091 -19.1145 -0.305124 -2.90383 40.3156 -13.8663 4.9446 5.73153 -0.0 -0.0 0.0 0.0 0.0 
3423.93444559 723.246 -1512.82342219 -21.4333305902 76.3915969159 15.1021599653 2.25995 1.27771 4.42589 2.2703 0.993788 4.49802 2.34787 0.21645 4.6012 2.31957 0.939662 4.50961 -17.8044 17.0879 -5.41889 -19.5283 35.7338 2.17208 -0.0 0.0 -0.0 -5.45398 21.3348 -5.37477 -26.2857 -12.5025 68.9114 0.686149 -18.7729 0.113426 -3.3913 -0.131765 0.412904 0.159057 29.1526 12.2706 -0.0 0.0 -0.0 13.8426 27.7719 -27.4053 9.25567 25.6013 -72.8168 1.36208 34.0071 -0.416539 21.8394 -0.245754 2.76211 0.0567473 15.4169 6.1809 0.0 0.0 0.0 33.153 35.7801 -16.7491 -16.8552 0.319823 2.55751 4.45362 -14.8249 -0.699992 -6.33772 0.0 0.0 -0.0 0.0 -0.0 -2.6046 22.89 1.66306 -17.6157 -0.3164 -2.67414 40.6107 -13.7386 4.96892 6.44778 -0.0 -0.0 0.0 0.0 0.0 
3416.34931906 719.737 -1504.32845821 -25.103419322 77.0631216107 18.69760825 2.42826 1.02298 4.47995 2.43912 0.736138 4.5358 2.4961 -0.0328049 4.59491 2.46732 0.692526 4.54265 -16.5557 15.6442 -6.4495 -17.806 33.6091 0.0623349 -0.0 0.0 -0.0 -5.15462 21.848 -4.80265 -27.5597 -12.0793 69.3022 0.598605 -16.5169 0.0868845 -2.67857 -0.102045 0.326775 0.236438 28.9632 12.6342 -0.0 0.0 -0.0 13.7381 27.8906 -27.1464 10.3302 24.7293 -72.2394 1.5118 36.8272 -0.503335 20.4967 -0.261193 2.59131 0.540676 19.4817 4.68174 0.0 0.0 0.0 34.0063 35.7557 -15.0 -6.2812 0.207186 0.941234 -4.45164 -19.1037 0.742695 -8.74952 0.0 0.0 -0.0 0.0 -0.0 -4.16781 25.7233 3.02565 -14.6789 -0.321062 -2.22363 40.2519 -12.276 4.91955 10.6772 -0.0 -0.0 0.0 0.0 0.0 
